<?xml version="1.0" standalone="no"?>
<!DOCTYPE svg PUBLIC "-//W3C//DTD SVG 20010904//EN"
 "http://www.w3.org/TR/2001/REC-SVG-20010904/DTD/svg10.dtd">
<svg version="1.0" xmlns="http://www.w3.org/2000/svg"
 width="512.000000pt" height="512.000000pt" viewBox="0 0 512.000000 512.000000"
 preserveAspectRatio="xMidYMid meet">
<metadata>
Created by potrace 1.11, written by Peter Selinger 2001-2013
</metadata>
<g transform="translate(0.000000,512.000000) scale(0.100000,-0.100000)"
fill="#000000" stroke="none">
<path d="M416 5105 c-189 -52 -351 -215 -401 -405 -22 -83 -22 -4197 0 -4280
51 -192 213 -354 405 -405 83 -22 4197 -22 4280 0 192 51 354 213 405 405 22
83 22 4197 0 4280 -51 192 -213 354 -405 405 -79 21 -4208 21 -4284 0z m2554
-999 c216 -43 389 -126 511 -246 116 -115 177 -224 226 -408 24 -88 26 -114
27 -287 0 -181 -1 -194 -27 -270 -59 -174 -163 -311 -313 -411 -119 -79 -230
-123 -438 -172 -29 -7 -23 -14 363 -427 267 -286 400 -436 416 -469 19 -37 25
-66 25 -113 0 -200 -179 -355 -373 -323 -65 10 -141 47 -181 86 -16 16 -247
293 -514 617 -266 323 -488 587 -493 587 -4 0 -9 -237 -11 -527 l-3 -528 -28
-60 c-35 -74 -67 -109 -131 -142 -94 -48 -236 -49 -325 -3 -51 26 -106 86
-133 145 l-23 50 -3 1329 c-3 1469 -6 1390 61 1477 42 55 73 77 138 100 51 18
86 19 599 15 460 -3 558 -6 630 -20z"/>
<path d="M2192 3138 l3 -393 205 -3 c329 -4 438 17 536 103 171 149 159 481
-21 605 -98 68 -172 80 -482 80 l-243 0 2 -392z"/>
</g>
</svg>
